@startuml
footer Arnaud Bouvry
' Ortho lines (only vertical and horizontal segments)
'skinparam linetype ortho

' Split into 4 pages
'page 2x2
'skinparam pageMargin 10

skinparam svgLinkTarget _parent
skinparam backgroundColor white

'#############
'# misc
'#############

namespace std{
class "std::enable_shared_from_this<Organ>" as esft_organ
class "std::enable_shared_from_this<Organism>" as esft_organism
}

'#############
'# ORGANISM
'#############

package Organism {
class CPlantBox::MappedPlant
class CPlantBox::MappedSegments
class CPlantBox::Plant
class CPlantBox::Organism

CPlantBox::MappedSegments <-- CPlantBox::MappedPlant
CPlantBox::Plant <-- CPlantBox::MappedPlant
CPlantBox::Organism <-- CPlantBox::Plant

esft_organism <-- CPlantBox::Organism

class CPlantBox::MappedRootSystem
class CPlantBox::RootSystem

CPlantBox::MappedSegments <-- CPlantBox::MappedRootSystem
CPlantBox::RootSystem <-- CPlantBox::MappedRootSystem
CPlantBox::Organism <-- CPlantBox::RootSystem
}

CPlantBox::Vector3d <.. CPlantBox::MappedSegments
note on link
minBound
maxBound
resolution
end note

'#############
'# ORGANS
'#############
package Organs {
class CPlantBox::Organ
class CPlantBox::Leaf
class CPlantBox::Root
class CPlantBox::RootDelay
class CPlantBox::Seed
class CPlantBox::Stem

CPlantBox::Organ <-- CPlantBox::Leaf
esft_organ <-- CPlantBox::Organ


CPlantBox::Organ <-- CPlantBox::Root
CPlantBox::Organ <-- CPlantBox::Seed
CPlantBox::Organ <-- CPlantBox::Stem
CPlantBox::Root <-- CPlantBox::RootDelay

CPlantBox::Vector3d <.. CPlantBox::Leaf
note on link
partialHeading
end note

CPlantBox::Vector3d <.. CPlantBox::Stem
note on link
partialHeading
end note
}

CPlantBox::Matrix3d <.. CPlantBox::Organ
note on link
iHeading
end note


'#############
'# SOIL LOOKUP
'#############

package "SoilLookUp" {
class CPlantBox::SoilLookUp
class CPlantBox::MultiplySoilLookUp
class CPlantBox::Grid1D
class CPlantBox::EquidistantGrid1D
class CPlantBox::ExudationModel
class CPlantBox::Vector3d
class CPlantBox::RectilinearGrid3D
class CPlantBox::EquidistantGrid3D
class CPlantBox::ProportionalElongation
class CPlantBox::PySoilLookUp
class CPlantBox::SoilLookUpSDF

CPlantBox::SoilLookUp <-- CPlantBox::Grid1D
CPlantBox::Grid1D <-- CPlantBox::EquidistantGrid1D


CPlantBox::SoilLookUp <-- CPlantBox::RectilinearGrid3D
CPlantBox::Grid1D <.. CPlantBox::RectilinearGrid3D 
note on link
xgrid 
ygrid 
zgrid
end note

CPlantBox::RectilinearGrid3D <-- CPlantBox::EquidistantGrid3D


CPlantBox::EquidistantGrid3D <.. CPlantBox::ExudationModel 
note on link
grid
end note

CPlantBox::Vector3d <.. CPlantBox::ExudationModel 
note on link
tip_
x_
v_
end note

CPlantBox::SoilLookUp <-- CPlantBox::MultiplySoilLookUp

CPlantBox::SoilLookUp <.. CPlantBox::ProportionalElongation 
note on link
baseLookUp
end note

CPlantBox::SoilLookUp <-- CPlantBox::PySoilLookUp

CPlantBox::SoilLookUp <-- CPlantBox::SoilLookUpSDF
} 
'end package

CPlantBox::SignedDistanceFunction <.. CPlantBox::SoilLookUpSDF
note on link
sdf
end note

'#############
'# RANDOM PARAMETERS
'#############

'class CPlantBox::OrganRandomParameter
'class CPlantBox::LeafRandomParameter
'class CPlantBox::RootRandomParameter
'class CPlantBox::SeedRandomParameter
'class CPlantBox::StemRandomParameter

'CPlantBox::OrganRandomParameter <-- CPlantBox::LeafRandomParameter
'CPlantBox::OrganRandomParameter <-- CPlantBox::RootRandomParameter
'CPlantBox::OrganRandomParameter <-- CPlantBox::SeedRandomParameter
'CPlantBox::OrganRandomParameter <-- CPlantBox::StemRandomParameter

'CPlantBox::Vector3d <-- CPlantBox::SeedRandomParameter
'note on link
'seedPoss
'seedPos
'end note

'#############
'# SPECIFIC PARAMETERS
'#############

'class CPlantBox::OrganSpecificParameter
'class CPlantBox::LeafSpecificParameter
'class CPlantBox::RootSpecificParameter
'class CPlantBox::SeedSpecificParameter
'class CPlantBox::StemSpecificParameter

'CPlantBox::OrganSpecificParameter <-- CPlantBox::LeafSpecificParameter
'CPlantBox::OrganSpecificParameter <-- CPlantBox::RootSpecificParameter
'CPlantBox::OrganSpecificParameter <-- CPlantBox::SeedSpecificParameter
'CPlantBox::Vector3d <-- CPlantBox::SeedSpecificParameter
'note on link
'seedPos
'end note

'CPlantBox::OrganSpecificParameter <-- CPlantBox::StemSpecificParameter

'#############
'# GEOMETRY
'#############

class CPlantBox::Matrix3d
class CPlantBox::Vector3d

CPlantBox::Vector3d <.. CPlantBox::Matrix3d
note on link
r0
r1
r2
end note

package SignedDistanceFunctions {
class CPlantBox::SignedDistanceFunction
class CPlantBox::SDF_Complement
class CPlantBox::SDF_Cuboid
class CPlantBox::SDF_Difference
class CPlantBox::SDF_HalfPlane
class CPlantBox::SDF_Intersection
class CPlantBox::SDF_PlantBox
class CPlantBox::SDF_PlantContainer
class CPlantBox::SDF_RootSystem
class CPlantBox::SDF_RotateTranslate
class CPlantBox::SDF_Union


CPlantBox::SignedDistanceFunction <-- CPlantBox::SDF_Complement

CPlantBox::SignedDistanceFunction <-- CPlantBox::SDF_Cuboid
CPlantBox::Vector3d <-- CPlantBox::SDF_Cuboid
note on link
min
max
end note

CPlantBox::SDF_Intersection <-- CPlantBox::SDF_Difference

CPlantBox::SignedDistanceFunction <-- CPlantBox::SDF_HalfPlane
CPlantBox::Vector3d <-- CPlantBox::SDF_HalfPlane
note on link
p1
p2
n
o
end note

CPlantBox::SignedDistanceFunction <-- CPlantBox::SDF_Intersection
CPlantBox::SignedDistanceFunction <-- CPlantBox::SDF_PlantBox
CPlantBox::SignedDistanceFunction <-- CPlantBox::SDF_PlantContainer
CPlantBox::SignedDistanceFunction <-- CPlantBox::SDF_RootSystem
CPlantBox::SignedDistanceFunction <-- CPlantBox::SDF_RotateTranslate
CPlantBox::SDF_Intersection <-- CPlantBox::SDF_Union
}

' Hidden arrows for tighter layout
'CPlantBox::SDF_Complement <-[hidden]- CPlantBox::SDF_Difference
'CPlantBox::SDF_PlantBox <-[hidden]- CPlantBox::SDF_PlantContainer
'CPlantBox::SDF_RootSystem <-[hidden]- CPlantBox::SDF_RotateTranslate


@enduml

